<?xml version="1.0" encoding="UTF-8"?>
<svg xmlns="http://www.w3.org/2000/svg" xmlns:v="https://vecta.io/nano" viewBox="0 0 500 500">
    <style><![CDATA[.B{opacity:.996}.C{opacity:.994}.D{fill:#202020}.E{stroke:#202020}.F{stroke-linecap:round}.G{stroke-linejoin:round}.H{stroke-width:5.165}]]></style>
    <circle cx="183.833" cy="158.864" r="6.45" class="B D" />
    <path d="M199.05 364.416s6.152-6.807 6.152-18.523-6.152-18.523-6.152-18.523 14.557-10.7 19.305 1.617-13.153 16.906-13.153 16.906" fill="none" stroke-width="4.02" class="C E F G" />
    <g class="D">
        <circle cx="408.24" cy="478.777" r="6.45" class="B" />
        <circle cx="302.747" cy="283.396" r="6.45" class="B" />
        <circle cx="402.622" cy="24.969" r="6.45" class="B" />
        <circle cx="31.211" cy="23.096" r="6.45" class="B" />
        <circle cx="146.692" cy="265.918" r="6.45" class="B" />
        <circle cx="406.367" cy="167.915" r="6.45" class="B" />
    </g>
    <g fill="none" class="E F G">
        <path d="M258.63 93.984s7.905-8.746 7.905-23.8-7.905-23.8-7.905-23.8 18.703-13.734 24.803 2.078-16.9 21.72-16.9 21.72m-225.67 69.214s8.746 7.905 23.8 7.905 23.8-7.905 23.8-7.905 13.734 18.703-2.078 24.803-21.72-16.9-21.72-16.9M82.84 378.556s-7.905 8.746-7.905 23.8 7.905 23.8 7.905 23.8-18.703 13.734-24.803-2.078 16.9-21.72 16.9-21.72" class="C H" />
        <path d="M442.25 408.26s8.92-9.87 8.92-26.857-8.92-26.857-8.92-26.857 21.106-15.5 28 2.345-19.07 24.512-19.07 24.512" stroke-width="5.829" class="C" />
        <path d="M299.445 151.965s-7.905 8.746-7.905 23.8 7.905 23.8 7.905 23.8-18.703 13.734-24.803-2.078 16.9-21.72 16.9-21.72m-55.3 243.903s8.746 7.905 23.8 7.905 23.8-7.905 23.8-7.905 13.734 18.703-2.078 24.803-21.72-16.9-21.72-16.9" class="C H" />
    </g>
    <g class="D">
        <circle cx="434.457" cy="267.166" r="6.45" class="B" />
        <circle cx="138.577" cy="62.422" r="6.45" class="B" />
        <circle cx="16.23" cy="287.141" r="6.45" class="B" />
        <circle cx="146.067" cy="467.541" r="6.45" class="B" />
    </g>
    <path d="M441.452 84.488s6.405 5.79 17.43 5.79 17.43-5.79 17.43-5.79 10.058 13.697-1.522 18.164-15.907-12.376-15.907-12.376" fill="none" stroke-width="3.783" class="C E F G" />
    <circle cx="348.939" cy="363.92" r="6.45" class="B D" />
</svg>