<svg xmlns="http://www.w3.org/2000/svg" viewBox="0 0 150 150">
    <path d="M74.993 1.85C33.578 1.85 0 35.43 0 76.853 0 110 21.488 138.098 51.29 148.02c3.752.686 5.12-1.63 5.12-3.62l-.1-12.754c-20.862 4.53-25.263-10.056-25.263-10.056-3.412-8.66-8.33-10.967-8.33-10.967-6.8-4.655.516-4.563.516-4.563 7.528.534 11.487 7.73 11.487 7.73 6.7 11.46 17.556 8.15 21.828 6.234.68-4.848 2.615-8.154 4.76-10.028-16.653-1.892-34.163-8.33-34.163-37.068 0-8.186 2.924-14.88 7.72-20.125-.774-1.897-3.347-9.52.732-19.85 0 0 6.3-2.017 20.627 7.69 5.98-1.662 12.4-2.495 18.776-2.523 6.368.028 12.786.86 18.776 2.523 14.32-9.706 20.604-7.69 20.604-7.69 4.093 10.327 1.52 17.952.746 19.85 4.807 5.244 7.712 11.94 7.712 20.125 0 28.813-17.537 35.153-34.246 37.01 2.693 2.316 5.092 6.892 5.092 13.89l-.092 20.572c0 2.007 1.35 4.342 5.157 3.6 29.78-9.94 51.25-38.03 51.25-71.158C150 35.43 116.417 1.85 74.993 1.85" fill="var(--main-color)" fill-rule="evenodd"/>
</svg>