<svg viewBox="0 0 250 250" xmlns="http://www.w3.org/2000/svg">
    <g>
        <path d="m78.62 226.57c94.34 0 145.94-78.16 145.94-145.94 0-2.22 0-4.43-0.15-6.63a104.36 104.36 0 0 0 25.59-26.551 102.38 102.38 0 0 1-29.46 8.07 51.47 51.47 0 0 0 22.55-28.37 102.79 102.79 0 0 1-32.57 12.45c-15.9-16.906-41.163-21.044-61.625-10.093s-31.032 34.266-25.795 56.874a145.62 145.62 0 0 1-105.7-53.591c-13.614 23.436-6.66 53.42 15.88 68.47a50.91 50.91 0 0 1-23.28-6.42v0.65c7e-3 24.416 17.218 45.445 41.15 50.28a51.21 51.21 0 0 1-23.16 0.88c6.72 20.894 25.976 35.208 47.92 35.62a102.92 102.92 0 0 1-63.7 22c-4.08-8e-3 -8.158-0.255-12.2-0.74a145.21 145.21 0 0 0 78.62 23" fill="var(--main-color)"/>
    </g>
</svg>