<svg xmlns="http://www.w3.org/2000/svg" viewBox="0 0 150 150">
    <path d="M74.955 23.095s-45.998-.2-57.71 2.857c-6.476 1.714-12.666 6.952-14.38 13.333C-.28 50.904.007 74.998.007 74.998S-.28 99.092 2.864 110.71c1.714 6.38 8 11.62 14.38 13.333 11.714 3.143 57.71 2.857 57.71 2.857s45.998.2 57.71-2.857c6.476-1.714 12.476-6.952 14.2-13.333C150 99.187 150 74.998 150 74.998s-.096-24.094-3.238-35.713c-1.714-6.38-6.762-11.43-13.238-13.143-11.714-3.047-58.57-3.047-58.57-3.047zm-14.38 28.857L98 74.998 60.575 98.044z" fill="var(--main-color)"/>
</svg>